<svg width="24" height="24" viewBox="0 0 24 24" fill="none" xmlns="http://www.w3.org/2000/svg">
  <path
    d="M2 4.5C2 3.83696 2.26339 3.20107 2.73223 2.73223C3.20107 2.26339 3.83696 2 4.5 2H19.5C20.163 2 20.7989 2.26339 21.2678 2.73223C21.7366 3.20107 22 3.83696 22 4.5V19.5C22 20.163 21.7366 20.7989 21.2678 21.2678C20.7989 21.7366 20.163 22 19.5 22H4.5C3.83696 22 3.20107 21.7366 2.73223 21.2678C2.26339 20.7989 2 20.163 2 19.5V4.5Z"
    stroke="currentColor" stroke-width="2" stroke-linecap="round" stroke-linejoin="round" />
  <path
    d="M2 8.25H9.5L10.75 5.75L13.25 10.75L14.5 8.25H22M2 14.5H22M14.5 18.25V18.2625M18.25 18.25V18.2625"
    stroke="currentColor" stroke-width="2.2" stroke-linecap="round" stroke-linejoin="round" />
</svg>