<svg width="24" height="24" viewBox="0 0 24 24" fill="none" xmlns="http://www.w3.org/2000/svg">
  <g clip-path="url(#clip0_55_5)">
    <path d="M12 14.2891V11.5V8.71086" stroke="currentColor" stroke-width="2.2"
      stroke-linecap="round"
      stroke-linejoin="round" />
    <path
      d="M21.4286 23.1429H5.14284C4.46085 23.1429 3.8068 22.8719 3.32457 22.3897C2.84233 21.9075 2.57141 21.2534 2.57141 20.5714C2.57141 19.8894 2.84233 19.2354 3.32457 18.7532C3.8068 18.2709 4.46085 18 5.14284 18H19.7143M19.7143 18C20.1689 18 20.605 17.8194 20.9265 17.4979C21.2479 17.1764 21.4286 16.7404 21.4286 16.2857V2.57143C21.4286 2.11678 21.2479 1.68074 20.9265 1.35925C20.605 1.03776 20.1689 0.857147 19.7143 0.857147H5.14284C4.47257 0.856909 3.8287 1.11839 3.34839 1.5859C2.86807 2.0534 2.58928 2.68997 2.57141 3.36V20.5029M19.7143 18V23.1429"
      stroke="currentColor" stroke-width="2.2" stroke-linecap="round" stroke-linejoin="round" />
    <path
      d="M12 6C11.5858 6 11.25 5.66421 11.25 5.25C11.25 4.83579 11.5858 4.5 12 4.5C12.4142 4.5 12.75 4.83579 12.75 5.25C12.75 5.66421 12.4142 6 12 6Z"
      fill="currentColor" stroke="currentColor" />
  </g>
  <defs>
    <clipPath id="clip0_55_5">
      <rect width="24" height="24" fill="white" />
    </clipPath>
  </defs>
</svg>