<svg width="24" height="25" viewBox="0 0 24 25" fill="none" xmlns="http://www.w3.org/2000/svg">
  <path
    d="M19 10.0007C19 10.0007 19 5.00074 19 4.00074C19 3.25074 19 2.50073 18.23 1.73074C17.46 0.960739 16.75 1.00074 16 1.00074C15 1.00074 10.1117 1.00074 10.1117 1.00074H3.5C2.75 1.00074 2.19397 1.26677 1.73 1.73074C1.26603 2.19471 1 2.75074 1 3.50074V9.54297V14.6683C1 14.6683 1.00002 20.0007 1 20.5007C0.999975 21.2607 1.47855 21.916 1.77 22.2307C2.06145 22.5455 2.74 23.0007 3.5 23.0007C4 23.0007 11 23.0007 11 23.0007M5.55584 6.12608H14.6675M5.55584 10.6819H10.1117"
    stroke="currentColor" stroke-width="2.2" stroke-linecap="round" stroke-linejoin="round" />
  <path
    d="M12.7494 18.0852C12.7494 18.7583 12.882 19.4248 13.1395 20.0466C13.3971 20.6684 13.7746 21.2334 14.2506 21.7094C14.7265 22.1853 15.2915 22.5628 15.9133 22.8204C16.5352 23.078 17.2016 23.2105 17.8747 23.2105C18.5478 23.2105 19.2143 23.078 19.8361 22.8204C20.4579 22.5628 21.0229 22.1853 21.4989 21.7094C21.9748 21.2334 22.3523 20.6684 22.6099 20.0466C22.8675 19.4248 23 18.7583 23 18.0852C23 16.7259 22.46 15.4222 21.4989 14.461C20.5377 13.4999 19.234 12.9599 17.8747 12.9599C16.5154 12.9599 15.2117 13.4999 14.2506 14.461C13.2894 15.4222 12.7494 16.7259 12.7494 18.0852Z"
    stroke="currentColor" stroke-width="1.8" stroke-linecap="round" stroke-linejoin="round" />
  <path d="M19.5832 19.2242L17.8748 18.5977V15.8073" stroke="currentColor" stroke-width="1.5"
    stroke-linecap="round" stroke-linejoin="round" />
</svg>