<svg width="24" height="24" viewBox="0 0 24 24" fill="none" xmlns="http://www.w3.org/2000/svg">
  <path
    d="M11.1451 5.40005V7.58798C11.1451 9.1258 11.1451 9.89471 11.3508 10.6339C11.5565 11.3709 11.9603 12.0496 12.7677 13.406L13.8622 15.243C15.9192 18.6981 16.9477 20.4262 16.104 21.7067L16.0908 21.7265C15.235 23.0003 13.057 23.0003 8.69982 23.0003C4.34377 23.0003 2.16574 23.0003 1.30773 21.7265L1.29563 21.7067C0.451923 20.4262 1.48043 18.6981 3.53746 15.243L4.63197 13.406C5.43938 12.0496 5.84198 11.3709 6.04879 10.6339C6.25449 9.89581 6.25449 9.1269 6.25449 7.58798V5.40005"
    stroke="currentColor" stroke-width="2" />
  <path d="M5.39978 5.40005H11.9999" stroke="currentColor" stroke-width="1.5" stroke-linecap="round"
    stroke-linejoin="round" />
  <path
    d="M4.84973 13.4082C5.58344 12.7691 7.30716 13.23 8.70198 13.8306C10.5346 14.6215 12.1835 13.9824 12.5498 13.4082"
    stroke="currentColor" stroke-width="1.5" stroke-linecap="round" />
  <path
    d="M11.4499 6.50007C11.4499 8.70009 14.0481 11.1333 15.8202 10.9001C15.8202 12.7228 17.4273 14.2002 19.4096 14.2002C21.394 14.2002 23 12.7228 23 10.9001C23 9.0774 21.9 7.60008 19.7 7.60008C19.7 5.40005 18.0499 3.20003 15.7179 3.20003C15.7179 1.50271 14.7499 1 13.6499 1C12.5499 1 11.9999 2.10001 11.9999 2.10001C11.9999 2.10001 8.69983 2.10001 8.69983 5.40005"
    stroke="currentColor" stroke-width="1.8" stroke-linecap="round" stroke-linejoin="round" />
</svg>